<svg id="_x33_0" enable-background="new 0 0 64 64" height="512" viewBox="0 0 64 64" width="512" xmlns="http://www.w3.org/2000/svg"><g><path d="m12 1c-2.757 0-5 2.243-5 5v57h45c2.757 0 5-2.243 5-5v-57zm43 32h-2v-1.458c0-1.907-.743-3.699-2.091-5.047-.915-.915-2.062-1.564-3.316-1.877l-1.769-.442-.328-1.31c1.113-.802 1.938-1.975 2.298-3.337l.508-.484c1.025-.977 1.803-2.203 2.25-3.544.298-.889.448-1.813.448-2.749v-.752c0-1.505-.497-2.997-1.4-4.2-1.315-1.753-3.408-2.8-5.6-2.8h-4c-2.192 0-4.285 1.047-5.6 2.8-.903 1.203-1.4 2.695-1.4 4.2v.752c0 .936.15 1.86.446 2.747.447 1.342 1.226 2.568 2.251 3.545l.508.484c.36 1.363 1.185 2.535 2.298 3.338l-.328 1.31-1.768.442c-1.255.313-2.402.962-3.316 1.877-1.348 1.348-2.091 3.141-2.091 5.047v1.458h-2v-30h26zm-17.633-19.177c-.818.273-1.367 1.036-1.367 1.898v.539c-.27-.438-.494-.904-.657-1.393-.228-.683-.343-1.394-.343-2.115v-.752c0-1.075.355-2.141 1-3 .939-1.252 2.434-2 4-2h4c1.565 0 3.061.748 4 2 .645.859 1 1.925 1 3v.752c0 .72-.115 1.432-.343 2.115-.163.489-.387.955-.657 1.393v-.539c0-.862-.549-1.625-1.367-1.897-1.369-.457-2.632-1.237-3.652-2.257l-.981-.981-.98.98c-1.02 1.02-2.284 1.801-3.653 2.257zm.633 1.898c1.473-.491 2.845-1.291 4-2.329 1.155 1.038 2.527 1.838 4 2.329v2.279c0 2.206-1.794 4-4 4s-4-1.794-4-4zm4 8.279c.576 0 1.132-.086 1.659-.239l.27 1.079-1.929 3.216-1.929-3.216.27-1.079c.527.153 1.083.239 1.659.239zm-3.476 2.15 2.476 4.127v2.723h-8v-1.458c0-1.373.535-2.663 1.505-3.633.659-.658 1.484-1.125 2.387-1.351zm4.476 4.127 2.476-4.127 1.632.408c.903.226 1.728.693 2.387 1.351.97.971 1.505 2.261 1.505 3.633v1.458h-8zm-34-24.277c0-1.654 1.346-3 3-3h15v58h-18zm43 55h-23v-26h26v23c0 1.654-1.346 3-3 3z"/><path d="m31 43h22v-6h-22zm2-4h18v2h-18z"/><path d="m31 51h6v-6h-6zm2-4h2v2h-2z"/><path d="m31 59h6v-6h-6zm2-4h2v2h-2z"/><path d="m39 47h14v2h-14z"/><path d="m39 55h14v2h-14z"/><path d="m11 7v6h14v-6zm12 4h-10v-2h10z"/><path d="m11 15h14v2h-14z"/><path d="m11 19h4v2h-4z"/><path d="m17 19h8v2h-8z"/><path d="m11 33h14v-6h-14zm2-4h10v2h-10z"/><path d="m11 35h4v2h-4z"/><path d="m17 35h8v2h-8z"/><path d="m11 23h14v2h-14z"/><path d="m11 39h14v2h-14z"/><path d="m11 43h14v2h-14z"/><path d="m11 47h14v2h-14z"/><path d="m11 51h14v2h-14z"/><path d="m11 55h2v2h-2z"/><path d="m15 55h2v2h-2z"/><path d="m19 55h2v2h-2z"/><path d="m23 55h2v2h-2z"/></g></svg>